<?xml version="1.0" encoding="UTF-8" standalone="no"?>
<!-- Created with Inkscape (http://www.inkscape.org/) -->
<svg id="svg2" xmlns:rdf="http://www.w3.org/1999/02/22-rdf-syntax-ns#" xmlns="http://www.w3.org/2000/svg" height="48" width="48" version="1.0" xmlns:cc="http://web.resource.org/cc/" xmlns:xlink="http://www.w3.org/1999/xlink" xmlns:dc="http://purl.org/dc/elements/1.1/">
 <defs id="defs4">
  <radialGradient id="radialGradient1950" gradientUnits="userSpaceOnUse" cy="17" cx="8" gradientTransform="matrix(1 0 0 .625 0 6.375)" r="8">
   <stop id="stop3785" offset="0"/>
   <stop id="stop3787" stop-opacity="0" offset="1"/>
  </radialGradient>
  <linearGradient id="linearGradient1973" y2="14.54" gradientUnits="userSpaceOnUse" x2="14.372" gradientTransform="matrix(2 0 0 2.0732 2 .39050)" y1="15.99" x1="15.822">
   <stop id="stop3825" stop-color="#ef2929" offset="0"/>
   <stop id="stop3827" stop-color="#ef2929" stop-opacity="0" offset="1"/>
  </linearGradient>
  <linearGradient id="linearGradient1976" y2="4.3182" gradientUnits="userSpaceOnUse" x2="17.417" gradientTransform="matrix(2 0 0 2.0732 2 .39050)" y1="6.4437" x1="15.291">
   <stop id="stop3817" stop-color="#ef2929" offset="0"/>
   <stop id="stop3819" stop-color="#ef2929" stop-opacity="0" offset="1"/>
  </linearGradient>
  <linearGradient id="linearGradient1979" y2="14.275" gradientUnits="userSpaceOnUse" x2="8.1224" gradientTransform="matrix(2 0 0 2.0732 2 .39050)" y1="15.967" x1="6.4303">
   <stop id="stop3833" stop-color="#ef2929" offset="0"/>
   <stop id="stop3835" stop-color="#ef2929" stop-opacity="0" offset="1"/>
  </linearGradient>
  <linearGradient id="linearGradient1982" y2="4.7397" gradientUnits="userSpaceOnUse" x2="4.4832" gradientTransform="matrix(2 0 0 2.0732 2 .39050)" y1="6.3117" x1="6.0552">
   <stop id="stop3809" stop-color="#ef2929" offset="0"/>
   <stop id="stop3811" stop-color="#ef2929" stop-opacity="0" offset="1"/>
  </linearGradient>
  <radialGradient id="radialGradient1997" gradientUnits="userSpaceOnUse" cy="3.1549" cx="7.5927" gradientTransform="matrix(2.724 0 0 2.6334 -13.56 -4.8312)" r="8.4622">
   <stop id="stop3745" stop-color="#fff" offset="0"/>
   <stop id="stop3747" stop-color="#fff" stop-opacity=".33929" offset="1"/>
  </radialGradient>
  <radialGradient id="radialGradient1999" gradientUnits="userSpaceOnUse" cy="16.149" cx="10.864" gradientTransform="matrix(2.2102 0 0 2.1389 -12.102 -18.821)" r="8.7144">
   <stop id="stop3737" stop-color="#fff" offset="0"/>
   <stop id="stop3739" stop-color="#fff" stop-opacity="0" offset="1"/>
  </radialGradient>
  <radialGradient id="radialGradient2889" gradientUnits="userSpaceOnUse" cy="22.137" cx="24" gradientTransform="matrix(1 0 0 1.0356 0 -.82672)" r="19.5">
   <stop id="stop3841" stop-color="#eeeeec" offset="0"/>
   <stop id="stop2893" stop-color="#eeeeec" offset=".5"/>
   <stop id="stop2891" stop-color="#fff" offset=".78313"/>
   <stop id="stop3843" stop-color="#d3d7cf" offset="1"/>
  </radialGradient>
 </defs>
 <metadata id="metadata7">
  <rdf:RDF>
   <cc:Work rdf:about="">
    <dc:format>image/svg+xml</dc:format>
    <dc:type rdf:resource="http://purl.org/dc/dcmitype/StillImage"/>
    <dc:creator>
     <cc:Agent>
      <dc:title>Lapo Calamandrei</dc:title>
     </cc:Agent>
    </dc:creator>
    <cc:license rdf:resource="http://creativecommons.org/licenses/GPL/2.0/"/>
   </cc:Work>
   <cc:License rdf:about="http://creativecommons.org/licenses/GPL/2.0/">
    <cc:permits rdf:resource="http://web.resource.org/cc/Reproduction"/>
    <cc:permits rdf:resource="http://web.resource.org/cc/Distribution"/>
    <cc:requires rdf:resource="http://web.resource.org/cc/Notice"/>
    <cc:permits rdf:resource="http://web.resource.org/cc/DerivativeWorks"/>
    <cc:requires rdf:resource="http://web.resource.org/cc/ShareAlike"/>
    <cc:requires rdf:resource="http://web.resource.org/cc/SourceCode"/>
   </cc:License>
  </rdf:RDF>
 </metadata>
 <g id="layer1">
  <path id="path4685" d="m5 3.25c0 1.242-1.5686 3.3529-2 2.25-0.8297-2.1213-2.0666-0.2113-2.6515-1.4685-0.57786-1.2418 2.1449-1.3105 2.4115-2.4733 0.3838-1.6747 2.24 0.4498 2.24 1.6918z" transform="matrix(3 0 0 2.7642 2 .73603)" stroke-dashoffset="1.2" stroke="#edd400" stroke-linecap="round" stroke-width="1.0418" fill="none"/>
  <path id="path4687" d="m5.1324 3.7531c1.4085 0.8691-1.0284 1.7469-2.1324 1.7469s-2-1.008-2-2.25 1.5979-2.3282 2.6291-1.5673c1.0158 0.7497 0.0781 1.1909 1.5033 2.0704z" transform="matrix(3 0 0 2.7642 28 .73603)" stroke-dashoffset="1.2" stroke="#edd400" stroke-linecap="round" stroke-width="1.0418" fill="none"/>
  <path id="path3773" opacity=".5" d="m16 17a8 5 0 1 1 -16 0 8 5 0 1 1 16 0z" transform="matrix(3.0027 0 0 1.3061 -.021739 16.333)" fill="url(#radialGradient1950)"/>
  <path id="path4689" d="m5 3.25c-1.1996 0.4135-1.3448 3.1918-2.2912 2.4234-1.0009-0.8125 0.182-2.2651-1.3838-2.0347-1.5587 0.2294-0.51032-2.1102 1.675-2.6387 1.0776-0.26059 2 1.008 2 2.25z" transform="matrix(3 0 0 2.7642 2 27.687)" stroke-dashoffset="1.2" stroke="#edd400" stroke-linecap="round" stroke-width="1.0418" fill="none"/>
  <path id="path4691" d="m4.9106 3.4504c-1.6973 0.5172-0.4418 2.0559-1.6475 2.2305-1.158 0.1677-1.6367-1.3104-1.7917-2.4309-0.1541-1.114 0.6908-3.0303 1.5286-2.25 0.721 0.6715 3.6199 1.9294 1.9106 2.4504z" transform="matrix(3 0 0 2.7642 28 27.687)" stroke-dashoffset="1.2" stroke="#edd400" stroke-linecap="round" stroke-width="1.0418" fill="none"/>
  <path id="path3751" d="m5 3.25c0 1.242-1.5686 3.3529-2 2.25-0.8297-2.1213-2.0666-0.2113-2.6515-1.4685-0.57786-1.2418 2.1449-1.3105 2.4115-2.4733 0.3838-1.6747 2.24 0.4498 2.24 1.6918z" transform="matrix(3 0 0 2.7642 2 .73603)" stroke-dashoffset="1.2" stroke="#fff" stroke-linecap="round" stroke-width=".34726" fill="none"/>
  <path id="path3753" d="m5.1324 3.7531c1.4085 0.8691-1.0284 1.7469-2.1324 1.7469s-2-1.008-2-2.25 1.5979-2.3282 2.6291-1.5673c1.0158 0.7497 0.0781 1.1909 1.5033 2.0704z" transform="matrix(3 0 0 2.7642 28 .73603)" stroke-dashoffset="1.2" stroke="#fff" stroke-linecap="round" stroke-width=".34726" fill="none"/>
  <path id="path3755" d="m5 3.25c-1.1996 0.4135-1.3448 3.1918-2.2912 2.4234-1.0009-0.8125 0.182-2.2651-1.3838-2.0347-1.5587 0.2294-0.51032-2.1102 1.675-2.6387 1.0776-0.26059 2 1.008 2 2.25z" transform="matrix(3 0 0 2.7642 2 27.687)" stroke-dashoffset="1.2" stroke="#fff" stroke-linecap="round" stroke-width=".34726" fill="none"/>
  <path id="path3757" d="m4.9106 3.4504c-1.6973 0.5172-0.4418 2.0559-1.6475 2.2305-1.158 0.1677-1.6367-1.3104-1.7917-2.4309-0.1541-1.114 0.6908-3.0303 1.5286-2.25 0.721 0.6715 3.6199 1.9294 1.9106 2.4504z" transform="matrix(3 0 0 2.7642 28 27.687)" stroke-dashoffset="1.2" stroke="#fff" stroke-linecap="round" stroke-width=".34726" fill="none"/>
  <path id="path1871" stroke-linejoin="round" d="m24 3.5002c-10.488 0-19 8.8238-19 19.695 0 10.872 8.512 19.695 19 19.695s19-8.823 19-19.695c0-10.871-8.512-19.695-19-19.695zm0 10.366c4.968 0 9 4.18 9 9.329 0 5.15-4.032 9.329-9 9.329s-9-4.179-9-9.329c0-5.149 4.032-9.329 9-9.329z" stroke-dashoffset="1.2" stroke="#888a85" stroke-linecap="round" fill="url(#radialGradient2889)"/>
  <path id="path2764" d="m16.375 5.1847c-4.343 1.9834-7.8365 5.6043-9.75 10.106 3.995-0.047 6.59 2.005 9.125 4.147 0.906-2.126 2.575-3.855 4.625-4.795-0.721-3.59-1.977-6.7983-4-9.4583z" fill-rule="evenodd" fill="url(#linearGradient1982)"/>
  <path id="path2772" d="m15.75 26.953c-3.042 0.777-6.0833 0.982-9.125 4.146 1.9135 4.503 5.407 8.123 9.75 10.107 0.542-3.68 1.581-7.03 4-9.459-2.05-0.939-3.719-2.669-4.625-4.794z" fill="url(#linearGradient1979)"/>
  <path id="path2795" d="m31.625 5.1847c-1.949 2.5375-3.608 5.3643-4 9.4583 2.05 0.94 3.719 2.669 4.625 4.795 3.179-2.623 6.259-4.345 9.125-4.147-1.913-4.502-5.407-8.1229-9.75-10.106z" fill-rule="evenodd" fill="url(#linearGradient1976)"/>
  <path id="path2797" d="m32.25 26.953c-0.906 2.125-2.575 3.855-4.625 4.794 2.021 2.465 3.234 5.739 4 9.459 4.343-1.984 7.837-5.604 9.75-10.107-2.164-2.436-5.394-3.591-9.125-4.146z" fill-rule="evenodd" fill="url(#linearGradient1973)"/>
  <path id="path3706" d="m15.75 19.438c0.906-2.126 2.575-3.855 4.625-4.795m-4-9.4583c-4.343 1.9834-7.8365 5.6043-9.75 10.106" stroke="#a40000" stroke-linecap="round" stroke-width="1px" fill="none"/>
  <path id="path3708" d="m41.375 15.291c-1.913-4.502-5.407-8.1229-9.75-10.106m-4 9.458c2.05 0.94 3.719 2.669 4.625 4.795" stroke="#a40000" stroke-linecap="round" stroke-width="1px" fill="none"/>
  <path id="path3710" d="m32.25 26.953c-0.906 2.125-2.575 3.855-4.625 4.794m4 9.459c4.343-1.984 7.837-5.604 9.75-10.107" stroke="#a40000" stroke-linecap="round" stroke-width="1px" fill="none"/>
  <path id="path3712" d="m20.375 31.747c-2.05-0.939-3.719-2.669-4.625-4.794m-9.125 4.146c1.9135 4.503 5.407 8.123 9.75 10.107" stroke-dashoffset="1.2" stroke="#a40000" stroke-linecap="round" fill="none"/>
  <path id="path3722" opacity=".4" d="m18 10.281a8 7.7188 0 1 1 -16 0 8 7.7188 0 1 1 16 0z" transform="matrix(2.2465 0 0 2.4221 1.5347 -1.7065)" stroke-dashoffset="1.2" stroke="url(#radialGradient1997)" stroke-linecap="round" stroke-width=".42870" fill="none"/>
  <path id="path3724" opacity=".8" d="m18 10.281a8 7.7188 0 1 1 -16 0 8 7.7188 0 1 1 16 0z" transform="matrix(1.2424 0 0 1.335 11.576 9.4695)" stroke-dashoffset="1.2" stroke="url(#radialGradient1999)" stroke-linecap="round" stroke-width=".77646" fill="none"/>
 </g>
</svg>
